<svg id="Capa_1" data-name="Capa 1" xmlns="http://www.w3.org/2000/svg" xmlns:xlink="http://www.w3.org/1999/xlink" viewBox="0 0 755.14 384.51"><defs><style>.cls-1{fill:none;}.cls-2{fill:url(#linear-gradient);}.cls-3{fill:#007748;}.cls-4{fill:#00994d;}.cls-5{fill:#6bb078;}.cls-6{fill:url(#linear-gradient-2);}.cls-7{fill:url(#linear-gradient-3);}.cls-8{clip-path:url(#clip-path);}.cls-9{fill:url(#linear-gradient-4);}</style><linearGradient id="linear-gradient" x1="390.85" y1="275.28" x2="396.69" y2="318.47" gradientUnits="userSpaceOnUse"><stop offset="0" stop-color="#ffe200"/><stop offset="1" stop-color="#fff"/></linearGradient><linearGradient id="linear-gradient-2" x1="279.89" y1="350.75" x2="135.7" y2="311.87" gradientUnits="userSpaceOnUse"><stop offset="0" stop-color="#00662f"/><stop offset="1" stop-color="#4da92c"/></linearGradient><linearGradient id="linear-gradient-3" x1="488" y1="414.65" x2="462.08" y2="312.58" xlink:href="#linear-gradient-2"/><clipPath id="clip-path" transform="translate(-15.36 -104.26)"><path class="cls-1" d="M272.78,378.36S386.35,302.92,512.37,298s155,10.77,160,31.5,0,29,0,29S604.39,381.68,272.78,378.36Z"/></clipPath><linearGradient id="linear-gradient-4" x1="456.85" y1="249.78" x2="474.67" y2="358.33" gradientUnits="userSpaceOnUse"><stop offset="0" stop-color="#007bb8"/><stop offset="1" stop-color="#001881"/></linearGradient></defs><title>logo vallecito ojo forma svg</title><path class="cls-2" d="M290,319.47c19.65,5.36,29.69,11.75,34.48,17.73,45-21.91,114.32-48.86,187.94-51.77,44.46-1.76,76.84-.93,100.36,1.79-18.07-103.93-108.7-183-217.79-183-115.53,0-210.35,88.62-220.22,201.59C204.28,305.17,243.49,307.86,290,319.47Z" transform="translate(-15.36 -104.26)"/><path class="cls-3" d="M57.79,448.56c1.72-4.61,3.3-8.72,4.79-12.85,3.47-9.64,7-19.27,10.3-29a5.56,5.56,0,0,1,4.36-4.11,52.36,52.36,0,0,0,5.34-1.8c5.69-2,6.2-2.08,7.48,3.77,5.77,26.32.93,50.38-16.65,71.21-5.39,6.39-12.73,9.75-21.28,10.28a8.67,8.67,0,0,1-8.29-3.79c-5.31-7.16-7.61-15.39-9.13-24-1.13-6.37-2-12.8-3.42-19.09-1.39-6.14-4.73-11.16-10.47-14.19a4.14,4.14,0,0,1-2.29-3.5q-1.43-9.81-3-19.6c-.42-2.53-.09-3.87,3-3.24,4,.8,8,1.19,12,1.92,10.23,1.88,16.52,7.93,18.93,18.06q3,12.58,6.13,25.16C55.89,445.25,56,446.79,57.79,448.56Z" transform="translate(-15.36 -104.26)"/><path class="cls-3" d="M490.19,450.31c.06-23.27,15-39.1,38.27-41.75,7.55-.86,15.1-1.25,22.32,1.75,5.43,2.25,8.68,6.25,8.9,12.34s-2.95,8.6-8.75,7.18a41.26,41.26,0,0,0-28.77,2.89c-10,4.9-13.45,13.91-9.33,24.31s10.23,14.94,19.48,14.68a12.29,12.29,0,0,0,12-9.51,7.15,7.15,0,0,0-2.81-7.85c-2.64-2.08-4.48-.23-6.42,1.24-2.43,1.84-5.08,2.71-7.83.89a7.58,7.58,0,0,1-3.65-7.21c.24-3.47,2.77-4.93,5.54-5.64,8.39-2.16,16.68-.91,24.58,2.11,4,1.51,5.12,5.78,5.88,9.64,3.07,15.46-6.41,29.24-21.93,31.81a44.92,44.92,0,0,1-32.24-6.36C494.06,473.55,490.72,461.81,490.19,450.31Z" transform="translate(-15.36 -104.26)"/><path class="cls-3" d="M631,466.36c-2.42-.17-4.86-.2-7.25-.54-3.11-.45-3.21.9-2.16,3.17,1.86,4,6.92,6.22,12.89,5.63a95.28,95.28,0,0,0,13.47-2.69c2.13-.52,4.44-1.67,6,1.21s1.63,5.66-.24,8.36a8.56,8.56,0,0,1-2,1.94c-9.17,6.74-27.59,6.87-37,.28-9.66-6.79-13.12-18-9.24-30.2a39.12,39.12,0,0,1,7.86-14c9.33-10.66,27.24-11.46,37.69-1.71,4.68,4.36,7.55,17.66,5.31,24-.48,1.34-1.44,1.45-2.47,1.66A128.18,128.18,0,0,1,631,466.36Zm-1.26-11.68v-.11h6c1.15,0,2-.2,2.29-1.63.83-4.2-2.2-8-7-8.6a7.79,7.79,0,0,0-9,8.68c.46,3.87,4.83.77,7.27,1.65A1.33,1.33,0,0,0,629.69,454.68Z" transform="translate(-15.36 -104.26)"/><path class="cls-3" d="M696.68,465.53c-4.57-.38-9.17-.57-13.69-1.23-2.59-.37-3,.7-3.08,2.79-.06,3.87,1.82,6.31,5.76,7.11,5.8,1.18,11.21-.65,16.6-2.36a41.55,41.55,0,0,0,6-2.39c2.3-1.17,4.54-1.32,6.36.49a5.71,5.71,0,0,1,.91,7.11c-2.9,5.5-8.11,8.3-13.57,10.2-17.21,6-35.86-6.29-38.74-25.16-1.49-9.81.4-18.58,8-25.46,8.12-7.4,20.33-7.92,30.88-1.52a55.9,55.9,0,0,1,9.42,7.6c5.41,5.18,5.5,11.37,3.54,18-.56,1.89-2.21,2.61-3.93,3.13C706.41,465.23,701.56,465.4,696.68,465.53Zm-6-11.32v.18c2,0,4,0,6,0,1.21,0,2.29-.17,1.88-1.74-.82-3.13-1.82-6.24-4.85-8a6.44,6.44,0,0,0-7.54.34c-2.45,1.91-4.06,5.05-3.54,7.71.48,2.44,4,.79,6,1.32A11,11,0,0,0,690.67,454.21Z" transform="translate(-15.36 -104.26)"/><path class="cls-3" d="M270,452c0,10,0,10.05-9.16,11-6.58.66-13.16,1.22-19.72,2-4,.45-5,2.49-3.29,6.13a8.4,8.4,0,0,0,7.34,4.9c6.43.58,12.21-1.7,17.94-4.1s7.46-2.18,9.05,1.56a8.23,8.23,0,0,1-4.45,11c-14.25,6.33-32.13,3.59-42.31-6.47s-11.31-22.7-2.76-34.29c9.1-12.34,23.39-17.22,36.68-12.85,5.3,1.74,8.4,5.06,9.62,10.38A44.19,44.19,0,0,1,270,452Zm-24,2v0c2-.1,4-.31,6-.26,2.38.05,2.92-1.1,2.86-3.25-.11-4.9-3.06-8.95-7.11-9.46s-8.27,2.78-9.5,7.68-.35,5.79,4.48,5.46Z" transform="translate(-15.36 -104.26)"/><path class="cls-3" d="M402,458.65c.09-16.42,12.08-27.75,29.33-27.69,14.49.05,27.51,13.28,27.46,27.92-.05,15.36-14.61,28-32.26,27.93C412.48,486.78,401.87,474.61,402,458.65Zm17.35-.9c-.17,6.38,5.27,12.86,10.88,13,6.41.12,13.26-6.45,13.31-12.75,0-5.44-4.54-9.52-10.79-9.61C425.18,448.25,419.45,452.26,419.31,457.75Z" transform="translate(-15.36 -104.26)"/><path class="cls-3" d="M146.35,461.42c-.39,7-1.14,14-2.09,20.92-.33,2.37-1.37,3.27-3.59,3.34a45.91,45.91,0,0,0-5.24.45c-2.53.39-4.47.24-5-3-.43-2.77-2.11-1.61-3.55-.76a30.78,30.78,0,0,1-19,4.36c-6.52-.63-11.45-3.7-14.11-9.93-2.34-5.48-1-10.45,4-13.84,6.2-4.27,13.43-5.36,20.65-6.38,2.14-.3,4.3-.44,6.42-.81,3.42-.59,5.09-3,5.49-6.15s-2.12-4.27-4.32-5.12c-7.09-2.73-13.74-.85-19.42,3.42-2.8,2.1-4.09,1.57-5.86-.57a34.18,34.18,0,0,1-2.58-3.1c-2.26-3.52-1.48-7,2.37-8.74a48,48,0,0,1,37-1.69c4.6,1.62,6.42,5.54,7.44,9.88A63.68,63.68,0,0,1,146.35,461.42Zm-30.41,16.41a6.94,6.94,0,0,0,5.13-2c2.38-2.27,3.73-5.17,5-8.16,1-2.36.23-3.29-2.23-3a39.79,39.79,0,0,0-10.47,2.72c-2.46,1-5.55,2.06-5.24,5.28.29,3,3.3,3.92,5.91,4.7A18.79,18.79,0,0,0,115.94,477.83Z" transform="translate(-15.36 -104.26)"/><path class="cls-3" d="M179.57,442.63a127.51,127.51,0,0,1-3.21,31.27c-1.85,7.94-3.83,9.83-11.81,11-4.12.61-8.3.84-12.46,1.27-2.26.23-3.35-.41-2.57-2.93,8-26.13,6.1-52.78,4.16-79.44-.16-2.11-1.63-4.95.69-6.31s4.54.69,6.74,1.67c14.4,6.38,17.36,19.16,18.42,32.95C179.79,435.6,179.57,439.12,179.57,442.63Z" transform="translate(-15.36 -104.26)"/><path class="cls-3" d="M190.93,435.41a95.84,95.84,0,0,0-4.76-33.5c-1.12-3.28.19-3.3,2.8-2.89,12.08,1.9,19.07,9.32,22.4,20.61,3.44,11.66,2.47,23.53,1.21,35.36-.63,5.9-1.48,11.79-2.67,17.59-1.87,9.12-13.62,16.05-22.64,13.84-2.79-.69-1.92-2.29-1.63-4C188.27,466.85,190.49,451.23,190.93,435.41Z" transform="translate(-15.36 -104.26)"/><path class="cls-3" d="M722,459c0-8-.05-15.93,0-23.89,0-1.36-1-3.85,1.64-3.7s5.82-1.9,7.49,1.85c.78,1.72,1.51,3.46,2.25,5.2.83,1.94,1.72,1.81,2.66.09a23.81,23.81,0,0,1,4-5.59c4.35-4.29,9-4.49,13.61-.41A33.27,33.27,0,0,1,761,442.62c5.83,11.58,9.8,23.65,9.5,36.8-.14,6.36-3.8,9.59-10.15,9.28a7.36,7.36,0,0,1-7.32-8c.67-8.61-1.47-16.59-5.09-24.25-2.45-5.21-6-7.86-9.22-7.15-3.54.77-5.49,3.93-5.94,10a103.55,103.55,0,0,0,1.52,23.78c.48,3,.15,4.39-3.46,4.27-9-.32-9-.16-9-9.36,0-6.34,0-12.69,0-19Z" transform="translate(-15.36 -104.26)"/><path class="cls-3" d="M366.2,462.38a95.06,95.06,0,0,1,1.56-14.86c.36-2.2-.22-3.34-2.53-3.5-1.07-.07-2.12-.39-3.18-.55-3.18-.46-4.7-2.55-5-5.49-.29-3.21.76-5.88,4-7.18.74-.29,1.59-.3,2.35-.55,2.43-.8,5.67.18,7.29-1.72s.57-4.9.62-7.41c0-1.84.67-2.8,2.62-2.66.94.06,1.89,0,2.83,0,8.4,0,8.5,0,8.78,8.41.07,2.3,1.06,2.56,2.93,2.67,2.77.17,6.66-1.23,8,.9,1.16,1.85-.59,5.37-.65,8.17-.08,3.91-2,5.13-5.7,5.5-8,.8-8,1-9,8.9-.49,4-1,8-1.18,12.06-.15,4.51,1.8,6.08,6.29,5.47,2.94-.4,5.85-1,8.77-1.44,3.53-.59,5.37.8,5.71,4.32.79,8.29-4.7,13.79-12.84,12.86l-1.2-.16C371.8,484.14,365.92,477.34,366.2,462.38Z" transform="translate(-15.36 -104.26)"/><path class="cls-3" d="M308.84,428.54c12.35-.45,15.07,6.35,14.31,16.3-.28,3.58-2.09,5.72-5.8,6.05-4,.34-6.47-1.15-7.35-4.87-.41-1.73-1.22-2.1-2.83-2-6.93.53-13.57,6.67-14.33,13.35-.81,7.14,3.52,13,11.18,15.11a34.48,34.48,0,0,0,6.79.94c2.44.18,4.17-.38,5-2.91.54-1.63,1.71-2.93,3.58-2.71s2.53,1.76,3.08,3.37c3.83,11.27-3.2,18.9-13.88,16.43-6.23-1.45-12.36-2.94-17.84-6.27-17.34-10.53-18.49-32.75-2.48-45.58A31.74,31.74,0,0,1,308.84,428.54Z" transform="translate(-15.36 -104.26)"/><path class="cls-3" d="M581.42,437.19c5.17-7.9,11.64-6.37,18.09-5.18,2.08.38,2.53,1.56,2.48,3.43-.1,3.91-.07,7.82-.12,11.74,0,1.33.22,3-1.75,3-1.74,0-4,.84-4.77-1.77s-1.88-5.13-5-4.93c-3.55.23-5.88,2.59-7.12,5.82-1.58,4.12-1.49,8.45-1.26,12.79.19,3.9.49,7.82.35,11.72-.23,6.52-2.09,8.82-8.19,10.95-8.33,2.92-8.34,2.92-8.29-6,.08-14.84.27-29.69.2-44.53,0-3.06.89-4.22,3.89-3.82a12.1,12.1,0,0,0,2.82,0C577.22,429.88,581.6,429.58,581.42,437.19Z" transform="translate(-15.36 -104.26)"/><path class="cls-3" d="M333.21,462.5c.33-7.15.63-14.29,1-21.43.22-4.17,2-5.93,6-6,4.47-.14,7.42,2,7.71,5.88,1,12.9,1,25.86,2.75,38.72.55,4.13-2,6.86-6.13,7.63-11.24,2.07-12.39,1-12-10.21.18-4.84,0-9.7,0-14.56Z" transform="translate(-15.36 -104.26)"/><path class="cls-3" d="M338.92,414.79c8.66,0,12.64,3.09,12.6,9.06,0,3.22-1.28,5.87-4.23,7.23s-6,1.46-8.61-1.08a78.37,78.37,0,0,1-5.73-5.65c-3.86-4.7-2.45-8.21,3.59-9.31A21.34,21.34,0,0,1,338.92,414.79Z" transform="translate(-15.36 -104.26)"/><path class="cls-4" d="M520.9,154.13c7.82,5.72,8.08,13.89,7.27,22.41a11.11,11.11,0,0,0,.17,2c-3.08-3.32-3.93-7.8-5.68-11.74-1.95-4.38-7.29-7.63-11.26-4.81a22.86,22.86,0,0,1-11.13,3.93c-2.68.34-3.07-.37-3-2.55.09-2.55-.64-2.42-3.12-1.85-6.13,1.41-11.06,6.16-17.77,5.88-2.14-.09-3.79,1.52-3.41,4.08.59,4-1.47,5.72-5.08,6.09-3.9.41-5.09,3.07-5.39,6.41a16.65,16.65,0,0,0,.84,7.56c-1.6,1.48-2-.11-2.63-1.05-1.2-1.9-3-1.59-4.7-1.21-1.94.45-1.71,2.16-1.64,3.63a22.57,22.57,0,0,0,.36,3.19c.23,1.15,1.09,2.7-.39,3.18-2,.67-1.45-1.73-2.23-2.61-.24-.28-.18-.79-.36-1.15-1-2.09-1.79-5.23-4.15-.85-.67,1.23-1.92.9-2.91.75-3-.49-4.63,1.37-5.5,3.67-1.19,3.16-1.76,6.51-.05,9.78a16.35,16.35,0,0,1,1.46,9c-.07,1-.23,1.94-1.22,2.37s-6.51-2.59-7.11-3.87c-.86-1.84-.69-5.17-3.17-5-2.77.22-2.49,3.71-3.42,5.84a2.19,2.19,0,0,0,.39,2.24c1.15,1.79.1,2.56-1.52,2.61a5.15,5.15,0,0,0-5.05,3.83,53.43,53.43,0,0,0-11.9,5.84c-3.63,2.36-8.11,1.39-12.2,1.76-3.81.35-7.52.21-10.33,3.46-1.16,1.34-2.7.91-4.06.08-2.33-1.43-4.19-3.44-3.63-6.23.52-2.58,0-4-2.11-5.63-2.55-2-1.45-6.24,2.08-7.94,2.5-1.2,2.94-2.2,1.32-4.44-1.23-1.69-.5-3.29.87-4.69a40.13,40.13,0,0,1,8.39-6.89c1.72-1,2.17-1.64.65-3.16a3.32,3.32,0,0,1-.73-2.24c.18-6.7.43-13.41.7-20.12a3.25,3.25,0,0,1,1.83-3,5.53,5.53,0,0,0,3.11-4.37,3.19,3.19,0,0,1,2.22-2.67c1.75-.43,2.29-1.61,2.69-3.13.23-.89.61-2.33,1.17-2.46,6.35-1.46,3.16-7.89,5.93-11.2.51-.6.18-2.32,1.08-2.4,3.45-.34,6.71-2.21,9.82-2.35a5,5,0,0,0,4.57-2.43c2.56-3.36,4.72-7.53,10.27-5.78,1.14.36,1.95-.74,2.54-1.66,1.9-2.93,4.74-3.8,8-3.76,4.69.06,9.26,0,13.85-1.76,5-1.93,8-.39,10.42,4.67,1.24,2.64,2.5,3,4.95,1.8a25.49,25.49,0,0,1,11.35-2.43c3.59.39,7.19.39,10.76,1.28,2.94.73,5.61,1.67,7.74,3.9,1.76,1.84,4.2,2.49,6.5,2.94,6.43,1.24,10.71,4.58,12.33,11.07A8.43,8.43,0,0,0,520.9,154.13Z" transform="translate(-15.36 -104.26)"/><path class="cls-4" d="M359.46,289.86c-1.38-3.94-.86-7.46,2.19-10.51a3.91,3.91,0,0,0,1.06-4.12c-.63-1.81-2-1-3.36-.83-2.07.22-4.29-3.37-3.57-5.56a9.73,9.73,0,0,1,7.24-6.9c1.75-.4,2.1-.8,1.74-2.59-.63-3.07.54-5.39,3.44-7,3.17-1.76,6-4.16,9.84-4.41,1.57-.11,1.89-1.39,2.45-2.39,1.14-2.07,3.08-3.58,5.13-3.54,4.56.08,9.25,0,13.58,1.6,1.46.54,2,.62,3.38-.23,2.51-1.58,5.62-.77,8.46-1.05a1.37,1.37,0,0,1,1.32,1.33c.28,3.71,2.59,4.64,5.84,4.47,2.46-.14,3.63,1.26,4.15,3.54.6,2.63,1.87,3.77,4.95,2.88,2.64-.76,5.47-.87,7.46,2.28,1,1.56,3.24,2.32,4.9,3.46,2.08,1.43,3.94,3.09,3.25,5.94-.65,2.64-1.45,5.28-5,5.37-2.57.07-3.43,2.07-3.8,4.08-.89,4.84-4.72,7.63-7.43,11.19-.31.4-.93.87-1.34.82-4.9-.6-10.1,1.52-14.73-1.57a12.76,12.76,0,0,1,1.17-3.4c2-2.87,5.07-5.17-1.07-7.46-3-1.1-3-.48-3.59,1.64s-.22,4.7-2.58,6.08l-1.27.85.06,0-4.81.33a9.63,9.63,0,0,1-.46-1.11c-1.11-4.4-1.1-4.4-4.35-1.45a2.88,2.88,0,0,1-.66.43c-4.39,2.36-4.42,2.75-.32,5.46-.79.45-1.57.91-2.35,1.37-1.75.13-3.8-2.28-5.13-.1s1.15,3.46,2.28,5a2.67,2.67,0,0,1,.3.74c.38,2.25-.29,4.29-2.49,4.92-4,1.16-7.85,3.62-12.4,1.91-2.06-.77-7.58-5-8.29-7.23C363.82,291.43,361,291.46,359.46,289.86Zm7.37-27.43,0-.17-.3.05Z" transform="translate(-15.36 -104.26)"/><path class="cls-3" d="M387.84,294.44a2.67,2.67,0,0,0-.3-.74c-1.13-1.53-3.61-2.82-2.28-5s3.38.23,5.13.1c.71,2.27,1.39,4.55,2.16,6.8.26.77.82,1.43,1.79,1.2a1.5,1.5,0,0,0,1.05-1.53c.21-3,.27-5.92-2.65-7.84-4.1-2.71-4.07-3.1.32-5.46a2.88,2.88,0,0,0,.66-.43c3.25-2.95,3.24-2.95,4.35,1.45a8.81,8.81,0,0,0,.46,1.1c-.3,3.88,2,7.15,1.85,11l1.17-.1q.9-5.6,1.79-11.21l-.06,0,1.27-.85c2.36-1.38,2-4,2.58-6.08s.63-2.74,3.59-1.64c6.14,2.29,3.09,4.59,1.07,7.46a12.76,12.76,0,0,0-1.17,3.4,30.21,30.21,0,0,0-5.2,13.64c-1.57,4.88-3,9.82-4.76,14.63a16,16,0,0,0-.93,8.58,16.46,16.46,0,0,1-7.87,2.36c.07-8.89.68-17.79-1.34-26.6A6.47,6.47,0,0,0,387.84,294.44Z" transform="translate(-15.36 -104.26)"/><path class="cls-3" d="M419.5,225.94a5.15,5.15,0,0,1,5.05-3.83c1.62-.05,2.67-.82,1.52-2.61a2.19,2.19,0,0,1-.39-2.24c.93-2.13.65-5.62,3.42-5.84,2.48-.2,2.31,3.13,3.17,5,.6,1.28,6,4.35,7.11,3.87s1.15-1.39,1.22-2.37a16.35,16.35,0,0,0-1.46-9c-1.71-3.27-1.14-6.62.05-9.78.87-2.3,2.47-4.16,5.5-3.67,1,.15,2.24.48,2.91-.75,2.36-4.38,3.15-1.24,4.15.85.18.36.12.87.36,1.15.78.88.18,3.28,2.23,2.61,1.48-.48.62-2,.39-3.18a22.57,22.57,0,0,1-.36-3.19c-.07-1.47-.3-3.18,1.64-3.63,1.69-.38,3.5-.69,4.7,1.21.6.94,1,2.53,2.63,1.05,4.52-.46,9.05-.82,13.55-1.42,3.4-.45,5.9-.15,5.87,4.2,0,1.11.43,2.73,1.22,3.23,1.24.78,2-.9,2.88-1.59s1.8-2.75,3.2-1.61.44,2.8-.44,4.28c-1.78,3-5,4.41-7.25,6.85s-3,8.25-1.41,11.11a1.6,1.6,0,0,0,1.49,1c2.17.09,4.73-3.19,4.4-5.67,2.17-.28,2.65-2.12,3.18-3.73.93-2.79,1.72-5.64,2.39-8.5a2.5,2.5,0,0,1,2.06-2.15c1.41-.28,1.79.86,2.2,1.87.29.7.57,1.4.95,2.31.62-.49,1-.84,1.44-1.14.8-.56,1.47-2.13,2.58-1.12s.37,2.23-.61,3.14c-1.65,1.56-3.06,3.36-5.09,4.54-1.12.66-2.52,1.69-1.68,3.2.68,1.21,2.18.57,3.33.36,3.15-.57,5.06-2.58,6.6-5.29.71-1.28,2.06-3.37,3.65-2.3,1.4.94-.07,3-.7,4.25-1.14,2.2-3.42,3.79-3.62,6.55-3.85,1.62-7,4.57-11,5.8-5.32.1-9.27,3.38-10.59,9.25a59.56,59.56,0,0,1-8.59,20.8,10.84,10.84,0,0,0-1.7,5.33c-.28,3.52-1.12,6.82-3.65,9.6-1.91,2.11-1.62,5.05-2.07,7.69-1.46,8.55-.41,16.94,1.55,25.27.15.64.26,1.34,1,1.59a29.17,29.17,0,0,0,1.06,8.31c-8.19,1.67-16.42,3.17-24.73,4.09q.68-6.14,1.34-12.28c2.15-9.33,2.4-18.78,1.8-28.28q-.7-11.3-1.33-22.6a24.51,24.51,0,0,0-7.93-17c-2.43-2.29-5.27-3.77-8.8-3-2.23-2.31-5.08-1-7.64-1.28Zm25.12-5.42c-2.25,1.12-2.15,2.93-1.15,4.73.56,1,1.75,2.22,2.88,1.83,2-.7,1.55-2.81,1.64-4.47a19.51,19.51,0,0,0-.16-2.41c.76-5.42,1.07-10.9,2.94-16.15.78-2.19-1.85-4.48-2.81-4.73-2.22-.57-1.82,2.18-2,3.53C445.39,208.72,445.06,214.63,444.62,220.52Zm23.57-4.74a4.74,4.74,0,0,0-.24-1.59c-2.24-4.09-5.09-7.84-5.76-12.71-.23-1.6-1.57-.56-1.94.24-2.29,5-5.72,9.49-5.87,15.28-1.12.57-1.18,1.75-1.51,2.73-2.88,8.61-.43,17.12,1.21,25.42,1.14,5.74,4.11,6,7.9,1.78.44-.5.92-1,1.37-1.48C471.26,236.59,469.74,226.19,468.19,215.78Zm12.21-17.19c.26-1,.37-2.25-1-1.9-1.79.47-3.37,1.6-3.12,3.95.14,1.25-.34,3.38,1.29,3.26C480.78,203.68,479.92,200.64,480.4,198.59Z" transform="translate(-15.36 -104.26)"/><path class="cls-4" d="M422.25,227.19c2.56.32,5.41-1,7.64,1.28C427,229.81,424.46,229.59,422.25,227.19Z" transform="translate(-15.36 -104.26)"/><path class="cls-5" d="M503.53,213.93c.2-2.76,2.48-4.35,3.62-6.55.63-1.22,2.1-3.31.7-4.25-1.59-1.07-2.94,1-3.65,2.3-1.54,2.71-3.45,4.72-6.6,5.29-1.15.21-2.65.85-3.33-.36-.84-1.51.56-2.54,1.68-3.2,2-1.18,3.44-3,5.09-4.54,1-.91,1.66-2.17.61-3.14s-1.78.56-2.58,1.12c-.42.3-.82.65-1.44,1.14-.38-.91-.66-1.61-.95-2.31-.41-1-.79-2.15-2.2-1.87a2.5,2.5,0,0,0-2.06,2.15c-.67,2.86-1.46,5.71-2.39,8.5-.53,1.61-1,3.45-3.18,3.73-3.21-1-3.72-3.81-4.48-6.48,2.26-2.44,5.47-3.83,7.25-6.85.88-1.48,1.9-3.08.44-4.28s-2.2.87-3.2,1.61-1.64,2.37-2.88,1.59c-.79-.5-1.23-2.12-1.22-3.23,0-4.35-2.47-4.65-5.87-4.2-4.5.6-9,1-13.55,1.42a16.65,16.65,0,0,1-.84-7.56c.3-3.34,1.49-6,5.39-6.41,3.61-.37,5.67-2.11,5.08-6.09-.38-2.56,1.27-4.17,3.41-4.08,6.71.28,11.64-4.47,17.77-5.88,2.48-.57,3.21-.7,3.12,1.85-.07,2.18.32,2.89,3,2.55A22.86,22.86,0,0,0,511.4,162c4-2.82,9.31.43,11.26,4.81,1.75,3.94,2.6,8.42,5.68,11.74a1.16,1.16,0,0,1,.65,1.37c-.09,4.69-.87,9.57,2.36,13.59,2.8,3.5,2,7.5-1.92,9.57s-6.59,6.65-11.94,5.94c-.27,0-.69.44-.9.76C513.36,214.7,508.75,215.26,503.53,213.93Z" transform="translate(-15.36 -104.26)"/><path class="cls-4" d="M509.39,280.38c-2.32,3.37-4.81,6.37-9.58,4.4-.12,0-.31-.14-.39-.09-5.78,3.79-8.36-1.56-11.86-4.19a13.39,13.39,0,0,0-5.25-2.73c-4.26-1-6.32-6-5.81-11.86.34-4,2.36-7.36,3.48-11.06a2.74,2.74,0,0,1,2.71-2,9.77,9.77,0,0,0,1.21,0c5.2-.79,5.2-.8,8.86,1,.73-1.77-.21-3.4-.25-5a14.63,14.63,0,0,1,.12-2.81c.7-4,5.54.3,5.92-2.5.59-4.35,2.89-3.3,5.4-2.61.51.14,1.28.37,1.4.73,1.46,4.62,5.21,5.46,9.33,6.55,2.15.57,3.36,1.15,5.23-.47,2.53-2.21,6.45-1,8.17,1.77,2.09,3.43,4.54,6.62,3.26,11.05a2.16,2.16,0,0,0,1.24,2.36,6.88,6.88,0,0,1,3.2,9c-1.57,3.41-2.61,8.21-7.93,8.68a4.88,4.88,0,0,0-4.1,2.9c-1.5,3.5-3.54,3.36-6.34,1.46-1.54-1.05-3.43-1.59-4.36-3.4,1.41-3.59,3.72-6.88,4.38-11.26-2.37.95-5,4.54-4.87-1,0-.73-.27-1.36-1.06-1.45a1.8,1.8,0,0,0-1.66.9c-.6.78.15,2.31-1.39,2.52-1-.52-.28-2.63-1.7-2.34-1.85.38-.3,2.06-.64,2.92C504.55,275.82,507.33,277.93,509.39,280.38Z" transform="translate(-15.36 -104.26)"/><path class="cls-4" d="M503.53,213.93c5.22,1.33,9.83.77,13.06-4.18.21-.32.63-.79.9-.76,5.35.71,8-3.85,11.94-5.94s4.72-6.07,1.92-9.57c-3.23-4-2.45-8.9-2.36-13.59.65,5.54,4.12,8.51,9.11,10.29,2.76,1,3.53,3.28,2.54,5.91a29.46,29.46,0,0,0-1.29,17.42c.77,3.37-.28,6.16-4.27,7a3.22,3.22,0,0,0-2,1.26c-4.23,7-10.47,5.27-16.5,3.66-2.58-.69-4.61-.85-6.62,1.19a12.38,12.38,0,0,1-5.28,2.84c-8.75,2.75-13-.62-12.2-9.68C496.54,218.5,499.68,215.55,503.53,213.93Z" transform="translate(-15.36 -104.26)"/><path class="cls-3" d="M509.39,280.38c-2.06-2.45-4.84-4.56-3.28-8.53.34-.86-1.21-2.54.64-2.92,1.42-.29.67,1.82,1.7,2.34,1.54-.21.79-1.74,1.39-2.52a1.8,1.8,0,0,1,1.66-.9c.79.09,1.08.72,1.06,1.45-.12,5.5,2.5,1.91,4.87,1-.66,4.38-3,7.67-4.38,11.26-1.55,2-.37,3.94.3,5.86v.1c.06,2,.58,9.2.63,11.2l-1.26.14C511.39,294.49,512,284.44,509.39,280.38Z" transform="translate(-15.36 -104.26)"/><path class="cls-5" d="M513.35,287.48v-.1l.26.09Z" transform="translate(-15.36 -104.26)"/><path class="cls-4" d="M468.19,215.78c-4.42,2.4-9.08,2.27-13.81,1.22.15-5.79,3.58-10.32,5.87-15.28.37-.8,1.71-1.84,1.94-.24.67,4.87,3.52,8.62,5.76,12.71A4.74,4.74,0,0,1,468.19,215.78Z" transform="translate(-15.36 -104.26)"/><path class="cls-4" d="M444.62,220.52c.44-5.89.77-11.8,1.38-17.67.14-1.35-.26-4.1,2-3.53,1,.25,3.59,2.54,2.81,4.73-1.87,5.25-2.18,10.73-2.94,16.15A4,4,0,0,1,444.62,220.52Z" transform="translate(-15.36 -104.26)"/><path class="cls-5" d="M480.4,198.59c-.48,2,.38,5.09-2.79,5.31-1.63.12-1.15-2-1.29-3.26-.25-2.35,1.33-3.48,3.12-3.95C480.77,196.34,480.66,197.64,480.4,198.59Z" transform="translate(-15.36 -104.26)"/><path class="cls-6" d="M113.7,326s68.71-20.91,176.25,6c54.77,14.94,34.85,37.84,34.85,37.84H271S136.61,332,113.7,326Z" transform="translate(-15.36 -104.26)"/><path class="cls-7" d="M272.78,378.36S386.35,302.92,512.37,298s155,10.77,160,31.5,0,29,0,29S604.39,381.68,272.78,378.36Z" transform="translate(-15.36 -104.26)"/><g class="cls-8"><path class="cls-9" d="M534.9,336.44c-16.94,15.93-36.49,27.1-59.17,32.62-20.19,4.9-40.3,5.25-60.12-1.47-17.89-6.06-31.75-17.21-40.84-34-1-2.83-1.95-5.67-2.93-8.51,6.32-3.5,13.58-4.6,20-7.79a16.58,16.58,0,0,0,7.87-2.37l24.46-6.28c6.85-1.76,13.93-2.56,20.62-5,8.31-.93,16.54-2.43,24.73-4.1,8.53-1,17-2.08,25.58-3.09,5.7-.67,11.42-1.29,17.13-1.94l3-.08c13.9-.75,27.81-1.27,41.74-1.05,1.46,0,2.93.16,4.39.24a19.21,19.21,0,0,1-1.51,5.78c-1.62,4.66-4.84,8.62-5.83,13.55l-.17.2a1.76,1.76,0,0,0-1.41,2.27,1.05,1.05,0,0,0-.39.65c-2.82,2.14-4.44,5.17-6.05,8.21l-1,1.17a1.73,1.73,0,0,0-1.49,2l-1.86,1.92a2.08,2.08,0,0,0-1.53,2l-.85.69-.33,0v.34l-2.1,2.09h-.33l.06.33a1.66,1.66,0,0,0-.54.58l-.3-.06.07.3-.6.58-.31-.09Z" transform="translate(-15.36 -104.26)"/></g></svg>